<svg width="27" height="27" viewBox="0 0 27 27" fill="none" xmlns="http://www.w3.org/2000/svg">
<path d="M0.217451 0.529432L0.35946 0.35946C0.785487 -0.0665664 1.4468 -0.113903 1.92511 0.217451L2.09509 0.35946L13.5 11.7646L24.9049 0.35946C25.3842 -0.11982 26.1613 -0.11982 26.6405 0.35946C27.1198 0.83874 27.1198 1.61581 26.6405 2.09509L15.2354 13.5L26.6405 24.9049C27.0666 25.3309 27.1139 25.9923 26.7825 26.4706L26.6405 26.6405C26.2145 27.0666 25.5532 27.1139 25.0749 26.7825L24.9049 26.6405L13.5 15.2354L2.09509 26.6405C1.61581 27.1198 0.83874 27.1198 0.35946 26.6405C-0.11982 26.1613 -0.11982 25.3842 0.35946 24.9049L11.7646 13.5L0.35946 2.09509C-0.0665664 1.66906 -0.113903 1.00774 0.217451 0.529432L0.35946 0.35946L0.217451 0.529432Z" fill="white"/>
</svg>
