<svg width="162" height="156" viewBox="0 0 162 156" fill="none" xmlns="http://www.w3.org/2000/svg">
<path d="M81 0C36.302 0 0.000186301 34.9572 6.06567e-10 78C-0.000171346 121.043 36.3017 156 81 156C125.698 156 162 121.043 162 78C162 34.9572 125.698 0 81 0ZM81 6C122.33 6 155.769 38.2002 155.769 78C155.769 117.8 122.331 150 81 150C39.6694 150 6.23061 117.8 6.23077 78C6.23094 38.2002 39.6696 6 81 6ZM31.1538 42V45V114H130.846V42H31.1538ZM37.3846 48H87.2308V54H37.3846V48ZM93.4615 48H99.6923V54H93.4615V48ZM105.923 48H112.154V54H105.923V48ZM118.385 48H124.615V54H118.385V48ZM37.3846 60H124.615V108H37.3846V60ZM81.2069 68.707L69.8528 87.4453L59.3627 73.0078L44.2969 91.1367L49.1647 94.875L59.0219 83.0039L70.3395 98.5664L80.7931 81.3047L89.8107 98.6836L99.4611 86.3086L107.116 98.1094L117.667 85.9219L112.872 82.0898L107.846 87.9023L99.9235 75.7031L90.8816 87.3164L81.2069 68.707Z" fill="white"/>
</svg>
