<svg width="27" height="27" viewBox="0 0 27 27" fill="none" xmlns="http://www.w3.org/2000/svg">
<path d="M25.3125 0C25.7601 0 26.1893 0.17779 26.5057 0.494257C26.8222 0.810725 27 1.23995 27 1.6875V6.75C26.9993 7.19732 26.8212 7.62611 26.5049 7.94242C26.1886 8.25873 25.7598 8.43676 25.3125 8.4375C24.8738 8.4375 24.4418 8.26538 24.1194 7.94306L22.7812 6.60487L18.0681 11.3181C17.9115 11.4749 17.7255 11.5993 17.5208 11.6842C17.3161 11.7691 17.0966 11.8128 16.875 11.8128C16.6534 11.8128 16.4339 11.7691 16.2292 11.6842C16.0245 11.5993 15.8385 11.4749 15.6819 11.3181C15.5251 11.1615 15.4007 10.9755 15.3158 10.7708C15.2309 10.5661 15.1872 10.3466 15.1872 10.125C15.1872 9.90337 15.2309 9.68392 15.3158 9.47921C15.4007 9.27449 15.5251 9.08852 15.6819 8.93194L20.3951 4.21875L19.0569 2.88056C18.8211 2.64437 18.6605 2.34365 18.5953 2.01632C18.5302 1.68898 18.5634 1.34968 18.6908 1.04119C18.8187 0.732993 19.0351 0.469615 19.3126 0.284306C19.5901 0.0989966 19.9163 6.45372e-05 20.25 0L25.3125 0ZM8.93194 15.6819C9.08852 15.5251 9.27449 15.4007 9.47921 15.3158C9.68392 15.2309 9.90337 15.1872 10.125 15.1872C10.3466 15.1872 10.5661 15.2309 10.7708 15.3158C10.9755 15.4007 11.1615 15.5251 11.3181 15.6819C11.4749 15.8385 11.5993 16.0245 11.6842 16.2292C11.7691 16.4339 11.8128 16.6534 11.8128 16.875C11.8128 17.0966 11.7691 17.3161 11.6842 17.5208C11.5993 17.7255 11.4749 17.9115 11.3181 18.0681L6.60487 22.7812L7.94306 24.1194C8.17899 24.3554 8.33965 24.6561 8.40473 24.9834C8.46982 25.3107 8.4364 25.6499 8.30871 25.9582C8.18101 26.2665 7.96478 26.5301 7.68734 26.7155C7.40989 26.9009 7.0837 26.9999 6.75 27H1.6875C1.23995 27 0.810725 26.8222 0.494257 26.5057C0.17779 26.1893 0 25.7601 0 25.3125L0 20.25C0.00029801 19.8025 0.178183 19.3735 0.494586 19.0571C0.810989 18.7407 1.24004 18.5628 1.6875 18.5625C2.12625 18.5625 2.55825 18.7346 2.88056 19.0569L4.21875 20.3951L8.93194 15.6819V15.6819Z" fill="white"/>
</svg>
